<svg width="19" height="28" viewBox="0 0 19 28" fill="none" xmlns="http://www.w3.org/2000/svg">
<path d="M4.43502 18.9203H12.9203M12.0859 11.0431L18.365 9.09153M9.15849 6.72979L6.76847 1.11536M7.26345 7.6066C7.82605 7.04399 8.58912 6.72792 9.38477 6.72792C10.1804 6.72792 10.9435 7.04399 11.5061 7.6066C12.0687 8.16921 12.3848 8.93227 12.3848 9.72792C12.3848 10.5236 12.0687 11.2866 11.5061 11.8492L1.60659 21.7487C1.04398 22.3113 0.727911 23.0744 0.727911 23.8701C0.727911 24.6657 1.04398 25.4288 1.60659 25.9914C2.1692 26.554 2.93226 26.8701 3.72791 26.8701C4.52356 26.8701 5.28662 26.554 5.84923 25.9914L15.7487 16.0919C16.5845 15.2562 17.2474 14.264 17.6997 13.1721C18.152 12.0801 18.3848 10.9098 18.3848 9.72792C18.3848 8.54602 18.152 7.3757 17.6997 6.28377C17.2474 5.19184 16.5845 4.19969 15.7487 3.36396C14.913 2.52823 13.9208 1.8653 12.8289 1.41301C11.737 0.960714 10.5667 0.727922 9.38477 0.727922C8.20287 0.727922 7.03255 0.960714 5.94061 1.41301C4.84868 1.8653 3.85653 2.52823 3.0208 3.36396L1.60659 4.77817C1.04398 5.34078 0.727911 6.10385 0.727911 6.8995C0.727911 7.69514 1.04398 8.45821 1.60659 9.02082C2.1692 9.58342 2.93226 9.8995 3.72791 9.8995C4.52356 9.8995 5.28662 9.58342 5.84923 9.02082L7.26345 7.6066Z" stroke="white" stroke-width="1.2" stroke-linecap="round" stroke-linejoin="round"/>
</svg>
