<svg width="30" height="30" viewBox="0 0 30 30" fill="none" xmlns="http://www.w3.org/2000/svg">
<path d="M7.5 3.75C7.5 3.55109 7.42098 3.36032 7.28033 3.21967C7.13968 3.07902 6.94891 3 6.75 3C6.55109 3 6.36032 3.07902 6.21967 3.21967C6.07902 3.36032 6 3.55109 6 3.75C6 5.253 7.029 6.0225 7.74 6.555L7.8 6.6C8.589 7.191 9 7.545 9 8.25C9 8.44891 9.07902 8.63968 9.21967 8.78033C9.36032 8.92098 9.55109 9 9.75 9C9.94891 9 10.1397 8.92098 10.2803 8.78033C10.421 8.63968 10.5 8.44891 10.5 8.25C10.5 6.747 9.471 5.9775 8.76 5.445L8.7 5.4C7.911 4.809 7.5 4.455 7.5 3.75ZM22.5 11.9025V13.5H24C25.1935 13.5 26.3381 13.9741 27.182 14.818C28.0259 15.6619 28.5 16.8065 28.5 18C28.5 19.1935 28.0259 20.3381 27.182 21.182C26.3381 22.0259 25.1935 22.5 24 22.5H21.2955C20.3052 24.2164 18.7761 25.558 16.9454 26.3166C15.1147 27.0752 13.0849 27.2084 11.1708 26.6956C9.25669 26.1827 7.56535 25.0525 6.3592 23.4802C5.15305 21.908 4.49952 19.9816 4.5 18V11.9025C4.5 11.1285 5.1285 10.5 5.9025 10.5H21.0975C21.873 10.5 22.5 11.1285 22.5 11.9025ZM6 12V18C6 19.9891 6.79018 21.8968 8.1967 23.3033C9.60322 24.7098 11.5109 25.5 13.5 25.5C15.4891 25.5 17.3968 24.7098 18.8033 23.3033C20.2098 21.8968 21 19.9891 21 18V12H6ZM22.5 18C22.5013 19.0218 22.3283 20.0364 21.9885 21H24C24.7956 21 25.5587 20.6839 26.1213 20.1213C26.6839 19.5587 27 18.7956 27 18C27 17.2044 26.6839 16.4413 26.1213 15.8787C25.5587 15.3161 24.7956 15 24 15H22.5V18ZM11.25 3C11.4489 3 11.6397 3.07902 11.7803 3.21967C11.921 3.36032 12 3.55109 12 3.75C12 4.455 12.411 4.809 13.2 5.4L13.26 5.445C13.971 5.9775 15 6.747 15 8.25C15 8.44891 14.921 8.63968 14.7803 8.78033C14.6397 8.92098 14.4489 9 14.25 9C14.0511 9 13.8603 8.92098 13.7197 8.78033C13.579 8.63968 13.5 8.44891 13.5 8.25C13.5 7.545 13.089 7.191 12.3 6.6L12.24 6.555C11.529 6.0225 10.5 5.253 10.5 3.75C10.5 3.55109 10.579 3.36032 10.7197 3.21967C10.8603 3.07902 11.0511 3 11.25 3ZM16.5 3.75C16.5 3.55109 16.421 3.36032 16.2803 3.21967C16.1397 3.07902 15.9489 3 15.75 3C15.5511 3 15.3603 3.07902 15.2197 3.21967C15.079 3.36032 15 3.55109 15 3.75C15 5.253 16.029 6.0225 16.74 6.555L16.8 6.6C17.589 7.191 18 7.545 18 8.25C18 8.44891 18.079 8.63968 18.2197 8.78033C18.3603 8.92098 18.5511 9 18.75 9C18.9489 9 19.1397 8.92098 19.2803 8.78033C19.421 8.63968 19.5 8.44891 19.5 8.25C19.5 6.747 18.471 5.9775 17.76 5.445L17.7 5.4C16.911 4.809 16.5 4.455 16.5 3.75Z" fill="#232325"/>
</svg>
