<svg width="30" height="31" viewBox="0 0 30 31" fill="none" xmlns="http://www.w3.org/2000/svg">
<path fill-rule="evenodd" clip-rule="evenodd" d="M3.35959 5.01196C3.62913 4.79633 4.02244 4.84003 4.23807 5.10957L6.26138 7.63871L7.9449 5.63086C8.69575 4.73535 10.074 4.73744 10.8221 5.63521L12.5 7.64872L14.1846 5.62722C14.9342 4.72768 16.3158 4.72768 17.0654 5.62722L18.9404 7.87722C19.2212 8.21419 19.375 8.63894 19.375 9.07757V10.2538C19.7933 9.85285 20.1558 9.53139 20.4961 9.2883C21.1406 8.82798 21.7348 8.625 22.5 8.625C22.9943 8.625 23.5552 8.85828 24.0541 9.24373C24.5674 9.64043 25.0612 10.2316 25.4149 11.0274C26.1269 12.6295 26.2487 14.9987 24.9553 18.2321C24.0115 20.5918 22.5085 22.1659 20.9325 23.1867C21.5923 23.7049 22.5193 24.1094 23.819 24.2538C24.1621 24.2919 24.4093 24.601 24.3712 24.944C24.3331 25.2871 24.0241 25.5343 23.681 25.4962C21.9148 25.2999 20.6503 24.6707 19.7758 23.8371C18.1806 24.6083 16.6312 24.875 15.625 24.875C15.2798 24.875 15 24.5952 15 24.25C15 23.9048 15.2798 23.625 15.625 23.625C16.4277 23.625 17.6601 23.4205 18.9596 22.8395C18.9581 22.8372 18.9567 22.8349 18.9552 22.8326C18.1623 21.5708 18.0154 20.1606 18.125 19.2126V9.07757C18.125 8.93136 18.0738 8.78977 17.9802 8.67745L16.1052 6.42745C15.8553 6.1276 15.3948 6.1276 15.1449 6.42745L13.125 8.85128V21.75C13.125 22.0952 12.8452 22.375 12.5 22.375C12.1548 22.375 11.875 22.0952 11.875 21.75V8.85128L9.86182 6.43544C9.61244 6.13618 9.15304 6.13549 8.90275 6.43399L6.87502 8.85235V21.75C6.87502 22.0952 6.5952 22.375 6.25002 22.375C5.90484 22.375 5.62502 22.0952 5.62502 21.75V8.84424L3.26198 5.89044C3.04635 5.6209 3.09005 5.22759 3.35959 5.01196ZM19.375 19.2579C19.3751 19.2521 19.3751 19.2463 19.375 19.2405V12.009C20.2225 11.1623 20.7608 10.6354 21.2227 10.3055C21.672 9.98453 22.0153 9.875 22.5 9.875C22.6307 9.875 22.9292 9.95423 23.2897 10.2328C23.6357 10.5002 24.0013 10.9246 24.2726 11.5351C24.8106 12.7455 25.0014 14.7513 23.7947 17.7679C22.9255 19.9411 21.5189 21.3581 20.0688 22.253C20.05 22.2245 20.0315 22.196 20.0136 22.1674C19.5323 21.4016 19.357 20.5528 19.3436 19.875H19.375V19.2579Z" fill="black" stroke="white" stroke-linecap="round"/>
</svg>
