<svg width="17" height="20" viewBox="0 0 17 20" fill="none" xmlns="http://www.w3.org/2000/svg">
<rect width="17" height="20" fill="#D9D9D9"/>
<rect width="360" height="800" transform="translate(-316 -26)" fill="#232325"/>
<path d="M5.3125 2.1276C5.03071 2.1276 4.76046 2.23955 4.5612 2.4388C4.36194 2.63806 4.25 2.90831 4.25 3.1901C4.25 3.4719 4.36194 3.74215 4.5612 3.9414C4.76046 4.14066 5.03071 4.2526 5.3125 4.2526C5.59429 4.2526 5.86454 4.14066 6.0638 3.9414C6.26306 3.74215 6.375 3.4719 6.375 3.1901C6.375 2.90831 6.26306 2.63806 6.0638 2.4388C5.86454 2.23955 5.59429 2.1276 5.3125 2.1276ZM2.30562 2.1276C2.52514 1.50547 2.93222 0.966752 3.47076 0.585692C4.0093 0.204633 4.65278 0 5.3125 0C5.97222 0 6.6157 0.204633 7.15424 0.585692C7.69278 0.966752 8.09986 1.50547 8.31938 2.1276H15.9375C16.2193 2.1276 16.4895 2.23955 16.6888 2.4388C16.8881 2.63806 17 2.90831 17 3.1901C17 3.4719 16.8881 3.74215 16.6888 3.9414C16.4895 4.14066 16.2193 4.2526 15.9375 4.2526H8.31938C8.09986 4.87473 7.69278 5.41346 7.15424 5.79452C6.6157 6.17557 5.97222 6.38021 5.3125 6.38021C4.65278 6.38021 4.0093 6.17557 3.47076 5.79452C2.93222 5.41346 2.52514 4.87473 2.30562 4.2526H1.0625C0.780707 4.2526 0.510457 4.14066 0.311199 3.9414C0.111942 3.74215 0 3.4719 0 3.1901C0 2.90831 0.111942 2.63806 0.311199 2.4388C0.510457 2.23955 0.780707 2.1276 1.0625 2.1276H2.30562ZM11.6875 8.5026C11.4057 8.5026 11.1355 8.61454 10.9362 8.8138C10.7369 9.01306 10.625 9.28331 10.625 9.5651C10.625 9.8469 10.7369 10.1171 10.9362 10.3164C11.1355 10.5157 11.4057 10.6276 11.6875 10.6276C11.9693 10.6276 12.2395 10.5157 12.4388 10.3164C12.6381 10.1171 12.75 9.8469 12.75 9.5651C12.75 9.28331 12.6381 9.01306 12.4388 8.8138C12.2395 8.61454 11.9693 8.5026 11.6875 8.5026ZM8.68062 8.5026C8.90014 7.88048 9.30722 7.34175 9.84576 6.96069C10.3843 6.57963 11.0278 6.375 11.6875 6.375C12.3472 6.375 12.9907 6.57963 13.5292 6.96069C14.0678 7.34175 14.4749 7.88048 14.6944 8.5026H15.9375C16.2193 8.5026 16.4895 8.61454 16.6888 8.8138C16.8881 9.01306 17 9.28331 17 9.5651C17 9.8469 16.8881 10.1171 16.6888 10.3164C16.4895 10.5157 16.2193 10.6276 15.9375 10.6276H14.6944C14.4749 11.2497 14.0678 11.7885 13.5292 12.1695C12.9907 12.5506 12.3472 12.7552 11.6875 12.7552C11.0278 12.7552 10.3843 12.5506 9.84576 12.1695C9.30722 11.7885 8.90014 11.2497 8.68062 10.6276H1.0625C0.780707 10.6276 0.510457 10.5157 0.311199 10.3164C0.111942 10.1171 0 9.8469 0 9.5651C0 9.28331 0.111942 9.01306 0.311199 8.8138C0.510457 8.61454 0.780707 8.5026 1.0625 8.5026H8.68062ZM5.3125 14.8776C5.03071 14.8776 4.76046 14.9895 4.5612 15.1888C4.36194 15.3881 4.25 15.6583 4.25 15.9401C4.25 16.2219 4.36194 16.4921 4.5612 16.6914C4.76046 16.8907 5.03071 17.0026 5.3125 17.0026C5.59429 17.0026 5.86454 16.8907 6.0638 16.6914C6.26306 16.4921 6.375 16.2219 6.375 15.9401C6.375 15.6583 6.26306 15.3881 6.0638 15.1888C5.86454 14.9895 5.59429 14.8776 5.3125 14.8776ZM2.30562 14.8776C2.52514 14.2555 2.93222 13.7168 3.47076 13.3357C4.0093 12.9546 4.65278 12.75 5.3125 12.75C5.97222 12.75 6.6157 12.9546 7.15424 13.3357C7.69278 13.7168 8.09986 14.2555 8.31938 14.8776H15.9375C16.2193 14.8776 16.4895 14.9895 16.6888 15.1888C16.8881 15.3881 17 15.6583 17 15.9401C17 16.2219 16.8881 16.4921 16.6888 16.6914C16.4895 16.8907 16.2193 17.0026 15.9375 17.0026H8.31938C8.09986 17.6247 7.69278 18.1635 7.15424 18.5445C6.6157 18.9256 5.97222 19.1302 5.3125 19.1302C4.65278 19.1302 4.0093 18.9256 3.47076 18.5445C2.93222 18.1635 2.52514 17.6247 2.30562 17.0026H1.0625C0.780707 17.0026 0.510457 16.8907 0.311199 16.6914C0.111942 16.4921 0 16.2219 0 15.9401C0 15.6583 0.111942 15.3881 0.311199 15.1888C0.510457 14.9895 0.780707 14.8776 1.0625 14.8776H2.30562Z" fill="white"/>
</svg>
