<svg width="30" height="31" viewBox="0 0 30 31" fill="none" xmlns="http://www.w3.org/2000/svg">
<path d="M8.47049 3.69098C8.77923 3.53661 9.15465 3.66175 9.30902 3.97049L10.6156 6.58371C11.7269 8.80625 12.3554 11.2034 12.4979 13.625H17.5021C17.6446 11.2034 18.2731 8.80625 19.3844 6.58371L20.691 3.97049C20.8454 3.66175 21.2208 3.53661 21.5295 3.69098C21.8382 3.84535 21.9634 4.22077 21.809 4.52951L20.5024 7.14272C19.479 9.18953 18.8953 11.3954 18.7545 13.625H22.5C22.8452 13.625 23.125 13.9048 23.125 14.25C23.125 14.5952 22.8452 14.875 22.5 14.875H18.7219C18.7468 17.1465 19.2302 19.4166 20.1753 21.543L21.8211 25.2462C21.9613 25.5616 21.8193 25.9309 21.5038 26.0711C21.1884 26.2113 20.8191 26.0693 20.6789 25.7538L19.033 22.0507C18.016 19.7625 17.4968 17.3194 17.4718 14.875H12.5282C12.5032 17.3194 11.984 19.7625 10.967 22.0507L9.32113 25.7538C9.18094 26.0693 8.81159 26.2113 8.49616 26.0711C8.18074 25.9309 8.03868 25.5616 8.17887 25.2462L9.8247 21.543C10.7698 19.4166 11.2532 17.1465 11.2781 14.875H7.5C7.15482 14.875 6.875 14.5952 6.875 14.25C6.875 13.9048 7.15482 13.625 7.5 13.625H11.2455C11.1047 11.3954 10.521 9.18953 9.49759 7.14272L8.19098 4.52951C8.03661 4.22077 8.16175 3.84535 8.47049 3.69098Z" fill="white" stroke="white" stroke-linecap="round"/>
</svg>
