<svg width="26" height="22" viewBox="0 0 26 22" fill="none" xmlns="http://www.w3.org/2000/svg">
<path d="M18.6818 0C16.2955 0 14.2205 1.10805 13 2.96493C11.7795 1.10805 9.70455 0 7.31818 0C5.51053 0.00216767 3.77753 0.742506 2.49932 2.05861C1.22112 3.37471 0.502105 5.15911 0.5 7.02035C0.5 10.4369 2.56818 13.9927 6.64773 17.5872C8.5171 19.2273 10.5364 20.6771 12.6773 21.9164C12.7765 21.9713 12.8874 22 13 22C13.1126 22 13.2235 21.9713 13.3227 21.9164C15.4636 20.6771 17.4829 19.2273 19.3523 17.5872C23.4318 13.9927 25.5 10.4369 25.5 7.02035C25.4979 5.15911 24.7789 3.37471 23.5007 2.05861C22.2225 0.742506 20.4895 0.00216767 18.6818 0ZM13 20.4889C11.1352 19.3809 1.86364 13.5399 1.86364 7.02035C1.86514 5.5313 2.4403 4.10367 3.4629 3.05075C4.4855 1.99783 5.87201 1.40562 7.31818 1.40407C9.62273 1.40407 11.558 2.67124 12.3693 4.71183C12.4207 4.84059 12.5081 4.95072 12.6204 5.02822C12.7327 5.10573 12.8648 5.14711 13 5.14711C13.1352 5.14711 13.2673 5.10573 13.3796 5.02822C13.4919 4.95072 13.5793 4.84059 13.6307 4.71183C14.442 2.67124 16.3773 1.40407 18.6818 1.40407C20.128 1.40562 21.5145 1.99783 22.5371 3.05075C23.5597 4.10367 24.1349 5.5313 24.1364 7.02035C24.1364 13.5399 14.8648 19.3809 13 20.4889Z" fill="white"/>
</svg>
