<svg width="30" height="31" viewBox="0 0 30 31" fill="none" xmlns="http://www.w3.org/2000/svg">
<path d="M4.375 5.5L5.33678 5.82059C5.93734 6.02078 6.48304 6.35804 6.93067 6.80567C7.69539 7.57039 8.125 8.60756 8.125 9.68904V9.875M8.125 18.625V9.875M8.125 9.875L10.1478 7.34646C10.464 6.95119 10.8394 6.60708 11.2606 6.3263C12.0687 5.78751 13.0183 5.5 13.9896 5.5H14.6103C15.2776 5.5 15.9357 5.65536 16.5326 5.95378L16.8548 6.11492C17.6681 6.52156 18.2865 7.2346 18.5741 8.0972C18.6906 8.44678 18.75 8.81286 18.75 9.18135V16.9612C18.75 17.2366 18.7728 17.5115 18.818 17.7832L19.1215 19.6038C19.1913 20.0229 19.3159 20.4283 19.4902 20.8103M19.4902 20.8103L20.3943 19.5673C20.5478 19.3561 20.7178 19.1572 20.9024 18.9726L21.5664 18.3086C22.1642 17.7108 22.9749 17.375 23.8203 17.375H23.8557C24.9534 17.375 25.9706 17.9509 26.5353 18.8922C27.1291 19.8818 27.1291 21.1182 26.5353 22.1078C25.9706 23.0491 24.9534 23.625 23.8557 23.625H23.4593C22.4449 23.625 21.472 23.222 20.7547 22.5047L20.4655 22.2155C20.0567 21.8067 19.7274 21.3302 19.4902 20.8103ZM19.4902 20.8103L16.0427 25.5507C15.7682 25.928 15.4072 26.2339 14.9899 26.4426C14.5855 26.6447 14.1396 26.75 13.6876 26.75H11.25" stroke="white" stroke-width="2" stroke-linecap="round"/>
</svg>
