<svg width="30" height="31" viewBox="0 0 30 31" fill="none" xmlns="http://www.w3.org/2000/svg">
<path d="M24.9999 21.75C24.9999 22.7446 24.6048 23.6984 23.9015 24.4016C23.1982 25.1049 22.2444 25.5 21.2499 25.5C20.2712 25.4507 19.3458 25.0398 18.6529 24.347C17.96 23.6541 17.5491 22.7286 17.4999 21.75C17.6999 19.7375 18.1249 17.75 18.7499 15.825C19.4249 13.6875 19.8374 11.4875 19.9999 9.25C19.9569 7.60595 19.2846 6.0411 18.1217 4.87818C16.9588 3.71527 15.3939 3.04299 13.7499 3C12.1058 3.04299 10.5409 3.71527 9.37804 4.87818C8.21512 6.0411 7.54284 7.60595 7.49985 9.25C7.68735 11.1625 8.12485 13.0375 8.74985 14.875L9.01235 15.75C6.37485 14.9125 3.57485 16.375 2.73735 19C1.87485 21.6375 3.34985 24.45 5.98735 25.2875C8.62485 26.125 11.4249 24.6625 12.2624 22.025C12.4249 21.5375 12.4999 21.0125 12.4999 20.5C12.2999 18.3375 11.8749 16.2 11.1374 14.15C10.5836 12.5622 10.2022 10.9194 9.99985 9.25C10.0491 8.27137 10.46 7.3459 11.1529 6.65303C11.8458 5.96016 12.7712 5.54926 13.7499 5.5C15.7749 5.6 17.3999 7.225 17.4999 9.25C17.2967 11.2641 16.8776 13.2505 16.2499 15.175C15.5749 17.3125 15.1624 19.5125 14.9999 21.75C15.0428 23.394 15.7151 24.9589 16.878 26.1218C18.0409 27.2847 19.6058 27.957 21.2499 28C22.9075 28 24.4972 27.3415 25.6693 26.1694C26.8414 24.9973 27.4999 23.4076 27.4999 21.75H24.9999ZM7.49985 23C6.83681 23 6.20093 22.7366 5.73209 22.2678C5.26325 21.7989 4.99985 21.163 4.99985 20.5C4.99985 19.837 5.26325 19.2011 5.73209 18.7322C6.20093 18.2634 6.83681 18 7.49985 18C8.1629 18 8.79878 18.2634 9.26762 18.7322C9.73646 19.2011 9.99985 19.837 9.99985 20.5C9.99985 21.163 9.73646 21.7989 9.26762 22.2678C8.79878 22.7366 8.1629 23 7.49985 23Z" fill="#232325"/>
</svg>
