<svg width="30" height="31" viewBox="0 0 30 31" fill="none" xmlns="http://www.w3.org/2000/svg">
<path d="M17.1706 6.39075C18.5756 4.73587 19.971 4.03757 21.078 3.7712C21.6268 3.63915 22.0922 3.61624 22.4363 3.62752C22.6083 3.63316 22.7485 3.64729 22.8508 3.65989C22.8912 3.66487 22.9271 3.6698 22.9521 3.67325L22.9676 3.67537L22.9729 3.67609C23.7974 3.68558 24.7462 4.06328 25.4895 4.67611C26.2517 5.30458 26.875 6.2469 26.875 7.41884C26.875 8.42134 26.6987 9.33849 26.1918 10.1027C25.6789 10.876 24.8802 11.4143 23.7902 11.7566C23.4609 11.8601 23.1101 11.677 23.0067 11.3476C22.9032 11.0183 23.0863 10.6675 23.4156 10.5641C24.311 10.2828 24.8358 9.8857 25.1501 9.41182C25.4704 8.9289 25.625 8.28709 25.625 7.41884C25.625 6.72001 25.2556 6.10337 24.6943 5.64056C24.1236 5.17 23.4329 4.9259 22.9412 4.9259C22.8823 4.9259 22.8168 4.9165 22.8017 4.91433L22.7991 4.91396L22.7785 4.91115C22.7539 4.90776 22.7287 4.9043 22.6979 4.90051C22.6223 4.89119 22.5207 4.88096 22.3954 4.87685C22.1448 4.86864 21.7935 4.88471 21.3704 4.98651C20.5338 5.18782 19.3656 5.7367 18.1235 7.19974C17.2626 8.21377 16.6331 9.58168 16.2192 10.9237C15.8053 12.2658 15.625 13.5227 15.625 14.2783V26.75C15.625 27.0952 15.3452 27.375 15 27.375C14.6548 27.375 14.375 27.0952 14.375 26.75V14.25C14.375 13.4881 14.2039 12.2248 13.8124 10.8777C13.4206 9.5295 12.825 8.15676 12.012 7.14043C10.8395 5.6748 9.74227 5.13168 8.96694 4.93369C8.57424 4.83341 8.2489 4.81776 8.01787 4.82579C7.90223 4.82981 7.80849 4.83983 7.73858 4.84897C7.71005 4.8527 7.68685 4.85608 7.66365 4.85947L7.64396 4.86233L7.64227 4.86259C7.63005 4.86447 7.5619 4.875 7.5 4.875C7.05639 4.875 6.41619 5.11084 5.88032 5.57973C5.35626 6.03829 5 6.6592 5 7.375C5 8.25068 5.14727 8.90013 5.45187 9.3875C5.74853 9.86215 6.23921 10.2543 7.07264 10.5321C7.40011 10.6412 7.57708 10.9952 7.46793 11.3226C7.35877 11.6501 7.00482 11.8271 6.67736 11.7179C5.63579 11.3707 4.87647 10.8253 4.39188 10.05C3.91523 9.28737 3.75 8.37432 3.75 7.375C3.75 6.21579 4.33124 5.27421 5.05718 4.63901C5.76091 4.02325 6.66681 3.63638 7.46472 3.62525L9.27622 3.72256C10.3365 3.99331 11.6605 4.70019 12.988 6.35956C13.9419 7.55186 14.5963 9.09578 15.0128 10.5288C15.016 10.54 15.0193 10.5513 15.0225 10.5625C15.0232 10.5601 15.024 10.5577 15.0247 10.5553C15.4666 9.12251 16.1607 7.58035 17.1706 6.39075Z" fill="white" stroke="white" stroke-linecap="round"/>
</svg>
