<svg width="40" height="40" viewBox="0 0 40 40" fill="none" xmlns="http://www.w3.org/2000/svg">
<path d="M9.77983 24.5C9.83183 23.8413 9.94883 23.148 10.1308 22.42C10.3128 21.692 10.5338 20.9857 10.7938 20.301C11.0625 19.6077 11.3528 18.962 11.6648 18.364C11.9855 17.7573 12.3018 17.2503 12.6138 16.843H8.46683V15.491H14.4858V16.687C14.1998 17.0077 13.8878 17.4453 13.5498 18C13.2118 18.5547 12.8912 19.183 12.5878 19.885C12.2845 20.5783 12.0202 21.3237 11.7948 22.121C11.5782 22.9183 11.4438 23.7113 11.3918 24.5H9.77983ZM18.8325 20.119C18.5812 20.119 18.3385 20.1407 18.1045 20.184C17.8705 20.2273 17.6582 20.2923 17.4675 20.379C17.4588 20.4483 17.4502 20.5263 17.4415 20.613C17.4415 20.691 17.4415 20.769 17.4415 20.847C17.4415 21.1937 17.4632 21.523 17.5065 21.835C17.5585 22.1383 17.6408 22.407 17.7535 22.641C17.8748 22.8663 18.0352 23.0483 18.2345 23.187C18.4425 23.317 18.6982 23.382 19.0015 23.382C19.2528 23.382 19.4652 23.33 19.6385 23.226C19.8205 23.122 19.9678 22.9877 20.0805 22.823C20.1932 22.6583 20.2755 22.4807 20.3275 22.29C20.3795 22.0907 20.4055 21.9 20.4055 21.718C20.4055 21.198 20.2798 20.8037 20.0285 20.535C19.7772 20.2577 19.3785 20.119 18.8325 20.119ZM19.0275 18.871C19.5648 18.871 20.0198 18.949 20.3925 19.105C20.7738 19.2523 21.0815 19.456 21.3155 19.716C21.5495 19.976 21.7185 20.2793 21.8225 20.626C21.9352 20.964 21.9915 21.3193 21.9915 21.692C21.9915 22.03 21.9308 22.3767 21.8095 22.732C21.6968 23.0873 21.5148 23.4123 21.2635 23.707C21.0208 23.993 20.7132 24.2313 20.3405 24.422C19.9678 24.604 19.5258 24.695 19.0145 24.695C17.9832 24.695 17.1945 24.357 16.6485 23.681C16.1112 22.9963 15.8425 22.056 15.8425 20.86C15.8425 19.9933 15.9682 19.2263 16.2195 18.559C16.4795 17.883 16.8435 17.3153 17.3115 16.856C17.7882 16.3967 18.3602 16.05 19.0275 15.816C19.7035 15.5733 20.4618 15.4477 21.3025 15.439L21.3935 16.739C20.9255 16.7477 20.4878 16.7997 20.0805 16.895C19.6732 16.9817 19.3092 17.1203 18.9885 17.311C18.6678 17.5017 18.3905 17.7487 18.1565 18.052C17.9312 18.3553 17.7578 18.728 17.6365 19.17C18.0612 18.9707 18.5248 18.871 19.0275 18.871ZM27.5342 17.753C27.5342 18.5417 27.3305 19.1483 26.9232 19.573C26.5245 19.9977 26.0002 20.21 25.3502 20.21C25.0295 20.21 24.7348 20.158 24.4662 20.054C24.1975 19.9413 23.9678 19.781 23.7772 19.573C23.5865 19.365 23.4348 19.1093 23.3222 18.806C23.2182 18.494 23.1662 18.143 23.1662 17.753C23.1662 16.9557 23.3655 16.349 23.7642 15.933C24.1715 15.5083 24.7002 15.296 25.3502 15.296C26.0002 15.296 26.5245 15.5083 26.9232 15.933C27.3305 16.349 27.5342 16.9557 27.5342 17.753ZM26.2992 17.753C26.2992 17.2937 26.2125 16.9513 26.0392 16.726C25.8745 16.492 25.6448 16.375 25.3502 16.375C25.0555 16.375 24.8258 16.492 24.6612 16.726C24.4965 16.9513 24.4142 17.2937 24.4142 17.753C24.4142 18.2123 24.4965 18.559 24.6612 18.793C24.8258 19.0183 25.0555 19.131 25.3502 19.131C25.6448 19.131 25.8745 19.0183 26.0392 18.793C26.2125 18.559 26.2992 18.2123 26.2992 17.753ZM30.1732 15.491H31.6682L26.5852 24.5H25.0902L30.1732 15.491ZM33.6052 22.251C33.6052 23.0397 33.4015 23.6463 32.9942 24.071C32.5955 24.4957 32.0712 24.708 31.4212 24.708C31.1005 24.708 30.8058 24.6517 30.5372 24.539C30.2685 24.435 30.0388 24.279 29.8482 24.071C29.6575 23.863 29.5058 23.6073 29.3932 23.304C29.2892 22.992 29.2372 22.641 29.2372 22.251C29.2372 21.4537 29.4365 20.847 29.8352 20.431C30.2425 20.0063 30.7712 19.794 31.4212 19.794C32.0712 19.794 32.5955 20.0063 32.9942 20.431C33.4015 20.847 33.6052 21.4537 33.6052 22.251ZM32.3702 22.251C32.3702 21.7917 32.2835 21.4493 32.1102 21.224C31.9455 20.99 31.7158 20.873 31.4212 20.873C31.1265 20.873 30.8968 20.99 30.7322 21.224C30.5675 21.4493 30.4852 21.7917 30.4852 22.251C30.4852 22.7103 30.5675 23.057 30.7322 23.291C30.8968 23.5163 31.1265 23.629 31.4212 23.629C31.7158 23.629 31.9455 23.5163 32.1102 23.291C32.2835 23.057 32.3702 22.7103 32.3702 22.251Z" fill="white"/>
<circle cx="20" cy="20" r="18.5" stroke="#6F6F6F" stroke-width="3"/>
<path d="M20 1.5C23.7578 1.5 26.8755 2.41225 30 4.5C33.1245 6.58775 35.5619 9.5282 37 13C38.4381 16.4718 38.7331 19.8144 38 23.5C37.2669 27.1856 35.6572 30.3428 33 33C30.3428 35.6572 27.1856 37.2669 23.5 38C19.8144 38.7331 16.4718 38.4381 13 37C9.52821 35.5619 6.58775 33.1245 4.5 30C2.41225 26.8755 1.5 23.7578 1.5 20" stroke="white" stroke-width="3" stroke-linecap="round"/>
</svg>
