<svg width="30" height="31" viewBox="0 0 30 31" fill="none" xmlns="http://www.w3.org/2000/svg">
<path d="M15 5.5C8.125 5.5 2.5 9.975 2.5 15.5C2.5 18.15 4.5625 20.3375 7.2 20.5H7.5C8.82608 20.5 10.0979 19.9732 11.0355 19.0355C11.9732 18.0979 12.5 16.8261 12.5 15.5C12.5 14.1739 11.9732 12.9021 11.0355 11.9645C10.0979 11.0268 8.82608 10.5 7.5 10.5H7.2C9.30484 8.51399 12.1068 7.43631 15 7.5C17.2125 7.475 19.375 8.0875 21.25 9.25L22.8125 7.6875C20.4726 6.22282 17.7603 5.46336 15 5.5ZM7.5 13C8.16304 13 8.79893 13.2634 9.26777 13.7322C9.73661 14.2011 10 14.837 10 15.5C10 16.8875 8.85 18 7.5 18C6.87808 18.0031 6.27733 17.7743 5.81506 17.3583C5.35279 16.9422 5.06218 16.3688 5 15.75V15.25C5.06218 14.6312 5.35279 14.0578 5.81506 13.6417C6.27733 13.2257 6.87808 12.9969 7.5 13ZM22.8 10.5H22.5C21.1739 10.5 19.9021 11.0268 18.9645 11.9645C18.0268 12.9021 17.5 14.1739 17.5 15.5C17.5 16.8261 18.0268 18.0979 18.9645 19.0355C19.9021 19.9732 21.1739 20.5 22.5 20.5H22.8C20.6952 22.486 17.8932 23.5637 15 23.5C12.7875 23.525 10.625 22.9125 8.75 21.75L7.2 23.3C9.5375 24.7625 12.2375 25.5 15 25.5C21.875 25.5 27.5 21.025 27.5 15.5C27.5 12.85 25.4375 10.6625 22.8 10.5ZM22.5 18C21.837 18 21.2011 17.7366 20.7322 17.2678C20.2634 16.7989 20 16.163 20 15.5C20 14.1125 21.15 13 22.5 13C23.1219 12.9969 23.7227 13.2257 24.1849 13.6417C24.6472 14.0578 24.9378 14.6312 25 15.25V15.75C24.9378 16.3688 24.6472 16.9422 24.1849 17.3583C23.7227 17.7743 23.1219 18.0031 22.5 18Z" fill="white"/>
</svg>
