<svg width="30" height="31" viewBox="0 0 30 31" fill="none" xmlns="http://www.w3.org/2000/svg">
<path d="M6.73807 5.10957C6.52244 4.84003 6.12913 4.79633 5.85959 5.01196C5.59005 5.2276 5.54635 5.6209 5.76198 5.89044L8.12502 8.84425V21.75H9.37502V8.85236L11.4028 6.43399C11.653 6.13549 12.1124 6.13619 12.3618 6.43544L14.375 8.85129V21.75H15.625V8.85129L17.6449 6.42745C17.8948 6.12761 18.3553 6.12761 18.6052 6.42745L20.4802 8.67745C20.5738 8.78978 20.625 8.93136 20.625 9.07757V18.6229L20.625 18.625V21.5608C20.625 22.2151 20.8187 22.8548 21.1816 23.3992C21.7963 24.3212 22.8311 24.875 23.9393 24.875H25V26.4482C25 26.5596 25.1347 26.6154 25.2134 26.5366L27.4116 24.3384C27.4604 24.2896 27.4604 24.2104 27.4116 24.1616L25.2134 21.9634C25.1347 21.8846 25 21.9404 25 22.0518V23.625H23.9393C23.2491 23.625 22.6046 23.2801 22.2217 22.7058C21.9956 22.3667 21.875 21.9683 21.875 21.5608L21.875 9.07757C21.875 8.63894 21.7212 8.21419 21.4404 7.87722L19.5654 5.62722C18.8158 4.72769 17.4342 4.72768 16.6846 5.62722L15 7.64873L13.3221 5.63521C12.574 4.73744 11.1958 4.73536 10.4449 5.63086L8.76138 7.63871L6.73807 5.10957Z" fill="white" stroke="white" stroke-linecap="round"/>
</svg>
