<svg width="58" height="58" viewBox="0 0 58 58" fill="none" xmlns="http://www.w3.org/2000/svg">
<g clip-path="url(#clip0_3395_862)">
<g filter="url(#filter0_d_3395_862)">
<rect width="58" height="58" rx="4" fill="white"/>
</g>
<path fill-rule="evenodd" clip-rule="evenodd" d="M40.0716 17.9283C40.2012 18.0579 40.2905 18.2223 40.3284 18.4016C40.3664 18.5809 40.3514 18.7674 40.2853 18.9383L30.8288 43.5253C30.7618 43.6992 30.645 43.8496 30.4929 43.9573C30.3408 44.0651 30.1602 44.1255 29.9739 44.1309C29.7875 44.1364 29.6038 44.0867 29.4456 43.988C29.2875 43.8893 29.162 43.7461 29.085 43.5763L25.1303 34.8763L30.9479 29.0568C31.1985 28.7879 31.3349 28.4322 31.3284 28.0648C31.3219 27.6973 31.1731 27.3466 30.9132 27.0868C30.6533 26.8269 30.3027 26.678 29.9352 26.6715C29.5677 26.665 29.212 26.8014 28.9431 27.052L23.1236 32.8697L14.4236 28.9168C14.2533 28.8399 14.1096 28.7143 14.0107 28.5558C13.9117 28.3973 13.862 28.2131 13.8676 28.0263C13.8733 27.8396 13.9341 27.6587 14.0425 27.5065C14.1509 27.3543 14.3019 27.2376 14.4766 27.1712L39.0635 17.7146C39.2342 17.649 39.4203 17.6342 39.5992 17.6721C39.7781 17.7101 39.9422 17.7991 40.0716 17.9283Z" fill="#232325"/>
</g>
<defs>
<filter id="filter0_d_3395_862" x="-4" y="0" width="66" height="66" filterUnits="userSpaceOnUse" color-interpolation-filters="sRGB">
<feFlood flood-opacity="0" result="BackgroundImageFix"/>
<feColorMatrix in="SourceAlpha" type="matrix" values="0 0 0 0 0 0 0 0 0 0 0 0 0 0 0 0 0 0 127 0" result="hardAlpha"/>
<feOffset dy="4"/>
<feGaussianBlur stdDeviation="2"/>
<feComposite in2="hardAlpha" operator="out"/>
<feColorMatrix type="matrix" values="0 0 0 0 0 0 0 0 0 0 0 0 0 0 0 0 0 0 0.37 0"/>
<feBlend mode="normal" in2="BackgroundImageFix" result="effect1_dropShadow_3395_862"/>
<feBlend mode="normal" in="SourceGraphic" in2="effect1_dropShadow_3395_862" result="shape"/>
</filter>
<clipPath id="clip0_3395_862">
<rect width="58" height="58" rx="29" fill="white"/>
</clipPath>
</defs>
</svg>
