<svg width="30" height="31" viewBox="0 0 30 31" fill="none" xmlns="http://www.w3.org/2000/svg">
<path d="M24.3276 5.26076C24.2971 5.18704 24.2519 5.11798 24.1919 5.05806L23.75 4.875H13.75C13.4048 4.875 13.125 5.15482 13.125 5.5C13.125 5.84518 13.4048 6.125 13.75 6.125H22.2411L10.625 17.7411L6.69194 13.8081C6.44786 13.564 6.05214 13.564 5.80806 13.8081C5.56398 14.0521 5.56398 14.4479 5.80806 14.6919L9.74112 18.625L3.30806 25.0581C3.06398 25.3021 3.06398 25.6979 3.30806 25.9419C3.55214 26.186 3.94786 26.186 4.19194 25.9419L10.625 19.5089L14.5581 23.4419C14.8021 23.686 15.1979 23.686 15.4419 23.4419C15.686 23.1979 15.686 22.8021 15.4419 22.5581L11.5089 18.625L23.125 7.00888V14.875C23.125 15.2202 23.4048 15.5 23.75 15.5C24.0952 15.5 24.375 15.2202 24.375 14.875V5.5C24.375 5.41526 24.3581 5.33445 24.3276 5.26076Z" fill="white" stroke="white" stroke-linecap="round"/>
</svg>
