<svg width="30" height="31" viewBox="0 0 30 31" fill="none" xmlns="http://www.w3.org/2000/svg">
<path fill-rule="evenodd" clip-rule="evenodd" d="M3.125 5.5C3.125 5.15482 3.40482 4.875 3.75 4.875H4.22879C6.08368 4.875 7.88335 5.50629 9.33178 6.66503C10.0899 7.27157 10.7339 8.00841 11.2335 8.84098L11.7756 9.74449C12.2213 10.4874 12.5845 11.277 12.8584 12.0989L13.0445 12.6571C13.6643 12.4735 14.3207 12.375 15 12.375C15.6793 12.375 16.3357 12.4735 16.9555 12.6571L17.1416 12.0989C17.4155 11.277 17.7787 10.4874 18.2244 9.74449L18.7665 8.84098C19.2661 8.00841 19.9101 7.27157 20.6682 6.66503C22.1166 5.50629 23.9163 4.875 25.7712 4.875H26.25C26.5952 4.875 26.875 5.15482 26.875 5.5C26.875 5.84518 26.5952 6.125 26.25 6.125H25.7712C24.2002 6.125 22.6759 6.65969 21.4491 7.64112C20.8069 8.15484 20.2615 8.77893 19.8384 9.4841L19.2963 10.3876C18.8975 11.0524 18.5726 11.7588 18.3274 12.4942L18.1184 13.1213C20.348 14.258 21.875 16.5757 21.875 19.25C21.875 23.047 18.797 26.125 15 26.125C11.203 26.125 8.125 23.047 8.125 19.25C8.125 16.5757 9.65197 14.258 11.8816 13.1213L11.6726 12.4942C11.4274 11.7588 11.1025 11.0524 10.7037 10.3876L10.1616 9.4841C9.73849 8.77893 9.19306 8.15484 8.55091 7.64112C7.32412 6.65969 5.79984 6.125 4.22879 6.125H3.75C3.40482 6.125 3.125 5.84518 3.125 5.5ZM15 24.875C18.1066 24.875 20.625 22.3566 20.625 19.25C20.625 16.1434 18.1066 13.625 15 13.625C11.8934 13.625 9.375 16.1434 9.375 19.25C9.375 22.3566 11.8934 24.875 15 24.875Z" fill="white" stroke="white" stroke-linecap="round"/>
</svg>
