<svg width="30" height="31" viewBox="0 0 30 31" fill="none" xmlns="http://www.w3.org/2000/svg">
<path d="M4.47505 5.16092C4.66219 4.87116 5.04865 4.78782 5.33854 4.97458C5.3387 4.97468 5.33915 4.97497 5.00007 5.5L4.661 6.02502C4.37103 5.83776 4.28778 5.45088 4.47505 5.16092Z" fill="black"/>
<path fill-rule="evenodd" clip-rule="evenodd" d="M10.6251 22.798V8.20203C9.41098 7.96338 8.35801 7.65094 7.48975 7.33797C6.59533 7.01556 5.89573 6.69216 5.41629 6.44717C5.17651 6.32465 4.9916 6.22163 4.86472 6.14801C4.80127 6.1112 4.75231 6.08172 4.71823 6.06082L4.67831 6.03604L4.66681 6.02875L4.66319 6.02644L4.661 6.02502C4.66078 6.02488 4.661 6.02502 5.00007 5.5L5.33854 4.97458L5.34442 4.9783L5.37186 4.99533C5.39748 5.01105 5.43767 5.03528 5.49204 5.06683C5.60079 5.12993 5.76618 5.22222 5.98507 5.33407C6.42297 5.55784 7.07417 5.85944 7.91363 6.16203C9.59292 6.76736 12.0208 7.375 15.0001 7.375C17.9794 7.375 20.4072 6.76736 22.0865 6.16203C22.926 5.85944 23.5772 5.55784 24.0151 5.33407C24.234 5.22222 24.3994 5.12993 24.5081 5.06683C24.5625 5.03528 24.6027 5.01105 24.6283 4.99533L24.6557 4.9783L24.661 4.97497C24.9509 4.78798 25.3379 4.87107 25.5251 5.16092C25.7124 5.45088 25.6291 5.83776 25.3392 6.02502L25.0001 5.5C25.3392 6.02502 25.3394 6.02488 25.3392 6.02502L25.337 6.02644L25.3333 6.02875L25.3218 6.03604L25.2819 6.06082C25.2478 6.08172 25.1989 6.1112 25.1354 6.14801C25.0086 6.22163 24.8236 6.32465 24.5839 6.44717C24.1044 6.69216 23.4048 7.01556 22.5104 7.33797C21.6421 7.65094 20.5892 7.96338 19.3751 8.20203V22.798C20.5892 23.0366 21.6421 23.3491 22.5104 23.662C23.4048 23.9844 24.1044 24.3078 24.5839 24.5528C24.8236 24.6753 25.0086 24.7784 25.1354 24.852C25.1989 24.8888 25.2478 24.9183 25.2819 24.9392L25.3218 24.964L25.3333 24.9712L25.337 24.9736L25.3382 24.9744C25.3384 24.9745 25.3392 24.975 25.0001 25.5L25.3382 24.9744C25.6282 25.1616 25.7124 25.5491 25.5251 25.8391C25.3379 26.1289 24.9513 26.2122 24.6613 26.0252L24.6557 26.0217L24.6283 26.0047C24.6027 25.989 24.5625 25.9647 24.5081 25.9332C24.3994 25.8701 24.234 25.7778 24.0151 25.6659C23.5772 25.4422 22.926 25.1406 22.0865 24.838C20.4072 24.2326 17.9794 23.625 15.0001 23.625C12.0208 23.625 9.59292 24.2326 7.91363 24.838C7.07417 25.1406 6.42297 25.4422 5.98507 25.6659C5.76618 25.7778 5.60079 25.8701 5.49204 25.9332C5.43767 25.9647 5.39748 25.989 5.37186 26.0047L5.34442 26.0217L5.33915 26.025L5.00007 25.5C4.661 24.975 4.6612 24.9748 4.66141 24.9747L4.66319 24.9736L4.66681 24.9712L4.67831 24.964L4.71823 24.9392C4.75231 24.9183 4.80127 24.8888 4.86472 24.852C4.9916 24.7784 5.17651 24.6753 5.41629 24.5528C5.89573 24.3078 6.59533 23.9844 7.48975 23.662C8.35801 23.3491 9.41098 23.0366 10.6251 22.798ZM11.8751 22.589C12.8379 22.4558 13.8826 22.375 15.0001 22.375C16.1175 22.375 17.1622 22.4558 18.1251 22.589V8.41103C17.1622 8.54415 16.1175 8.625 15.0001 8.625C13.8826 8.625 12.8379 8.54415 11.8751 8.41103V22.589Z" fill="black"/>
<path d="M5.33915 26.025C5.33904 26.0251 5.33926 26.025 5.33915 26.025Z" fill="black"/>
<path d="M5.33915 26.025C5.04923 26.212 4.66225 26.1289 4.47505 25.8391C4.28778 25.5491 4.37145 25.162 4.66141 24.9747L5.00007 25.5C5.33915 26.025 5.33931 26.0249 5.33915 26.025Z" fill="black"/>
<path d="M5.33854 4.97458C5.04865 4.78782 4.66219 4.87116 4.47505 5.16092C4.28778 5.45088 4.37103 5.83776 4.661 6.02502M5.33854 4.97458C5.3387 4.97468 5.33915 4.97497 5.00007 5.5M5.33854 4.97458L5.00007 5.5M5.33854 4.97458L5.34442 4.9783L5.37186 4.99533C5.39748 5.01105 5.43767 5.03528 5.49204 5.06683C5.60079 5.12993 5.76618 5.22222 5.98507 5.33407C6.42297 5.55784 7.07417 5.85944 7.91363 6.16203C9.59292 6.76736 12.0208 7.375 15.0001 7.375C17.9794 7.375 20.4072 6.76736 22.0865 6.16203C22.926 5.85944 23.5772 5.55784 24.0151 5.33407C24.234 5.22222 24.3994 5.12993 24.5081 5.06683C24.5625 5.03528 24.6027 5.01105 24.6283 4.99533L24.6557 4.9783L24.661 4.97497C24.9509 4.78798 25.3379 4.87107 25.5251 5.16092C25.7124 5.45088 25.6291 5.83776 25.3392 6.02502M5.00007 5.5L4.661 6.02502M5.00007 5.5C4.661 6.02502 4.66078 6.02488 4.661 6.02502M4.661 6.02502L4.66319 6.02644L4.66681 6.02875L4.67831 6.03604L4.71823 6.06082C4.75231 6.08172 4.80127 6.1112 4.86472 6.14801C4.9916 6.22163 5.17651 6.32465 5.41629 6.44717C5.89573 6.69216 6.59533 7.01556 7.48975 7.33797C8.35801 7.65094 9.41098 7.96338 10.6251 8.20203V22.798C9.41098 23.0366 8.35801 23.3491 7.48975 23.662C6.59533 23.9844 5.89573 24.3078 5.41629 24.5528C5.17651 24.6753 4.9916 24.7784 4.86472 24.852C4.80127 24.8888 4.75231 24.9183 4.71823 24.9392L4.67831 24.964L4.66681 24.9712L4.66319 24.9736L4.66141 24.9747M25.3392 6.02502L25.0001 5.5C25.3392 6.02502 25.3394 6.02488 25.3392 6.02502ZM25.3392 6.02502L25.337 6.02644L25.3333 6.02875L25.3218 6.03604L25.2819 6.06082C25.2478 6.08172 25.1989 6.1112 25.1354 6.14801C25.0086 6.22163 24.8236 6.32465 24.5839 6.44717C24.1044 6.69216 23.4048 7.01556 22.5104 7.33797C21.6421 7.65094 20.5892 7.96338 19.3751 8.20203V22.798C20.5892 23.0366 21.6421 23.3491 22.5104 23.662C23.4048 23.9844 24.1044 24.3078 24.5839 24.5528C24.8236 24.6753 25.0086 24.7784 25.1354 24.852C25.1989 24.8888 25.2478 24.9183 25.2819 24.9392L25.3218 24.964L25.3333 24.9712L25.337 24.9736L25.3382 24.9744M25.3382 24.9744C25.3384 24.9745 25.3392 24.975 25.0001 25.5L25.3382 24.9744ZM25.3382 24.9744C25.6282 25.1616 25.7124 25.5491 25.5251 25.8391C25.3379 26.1289 24.9513 26.2122 24.6613 26.0252L24.6557 26.0217L24.6283 26.0047C24.6027 25.989 24.5625 25.9647 24.5081 25.9332C24.3994 25.8701 24.234 25.7778 24.0151 25.6659C23.5772 25.4422 22.926 25.1406 22.0865 24.838C20.4072 24.2326 17.9794 23.625 15.0001 23.625C12.0208 23.625 9.59292 24.2326 7.91363 24.838C7.07417 25.1406 6.42297 25.4422 5.98507 25.6659C5.76618 25.7778 5.60079 25.8701 5.49204 25.9332C5.43767 25.9647 5.39748 25.989 5.37186 26.0047L5.34442 26.0217L5.33915 26.025M5.33915 26.025L5.00007 25.5M5.33915 26.025C5.33926 26.025 5.33904 26.0251 5.33915 26.025ZM5.33915 26.025C5.04923 26.212 4.66225 26.1289 4.47505 25.8391C4.28778 25.5491 4.37145 25.162 4.66141 24.9747M5.33915 26.025C5.33931 26.0249 5.33915 26.025 5.00007 25.5M5.00007 25.5C4.661 24.975 4.6612 24.9748 4.66141 24.9747M5.00007 25.5L4.66141 24.9747M15.0001 22.375C13.8826 22.375 12.8379 22.4558 11.8751 22.589V8.41103C12.8379 8.54415 13.8826 8.625 15.0001 8.625C16.1175 8.625 17.1622 8.54415 18.1251 8.41103V22.589C17.1622 22.4558 16.1175 22.375 15.0001 22.375Z" stroke="white" stroke-linecap="round"/>
</svg>
