<svg width="20" height="22" viewBox="0 0 20 22" fill="none" xmlns="http://www.w3.org/2000/svg">
<path d="M18.971 11C19.0516 10.6314 19.2013 10.2813 19.4121 9.96833C19.6515 9.65895 19.8237 9.30299 19.9177 8.92324C20.0117 8.54349 20.0253 8.1483 19.9578 7.76296C19.783 7.40267 19.5342 7.08328 19.2276 6.82565C18.9211 6.56802 18.5636 6.37793 18.1786 6.26779C17.8461 6.15374 17.5352 5.9844 17.259 5.76691C17.1176 5.43017 17.0391 5.07038 17.0273 4.70534C17.0399 4.30751 16.9685 3.91149 16.8178 3.5431C16.6671 3.17471 16.4404 2.8422 16.1526 2.56724C15.8045 2.38011 15.4207 2.26871 15.0264 2.24037C14.6322 2.21202 14.2364 2.26737 13.865 2.40278C13.511 2.50608 13.1402 2.53909 12.7735 2.49996C12.4826 2.31759 12.2289 2.08167 12.026 1.80471C11.7991 1.46002 11.5008 1.16815 11.1512 0.948872C10.8017 0.729595 10.4091 0.588043 10 0.533813C9.59932 0.5877 9.21448 0.725395 8.87057 0.937928C8.52665 1.15046 8.23136 1.43307 8.00395 1.76733C7.80098 2.04429 7.5473 2.28021 7.25636 2.46258C6.88968 2.50171 6.51889 2.4687 6.16489 2.3654C5.79354 2.22999 5.39775 2.17465 5.0035 2.20299C4.60924 2.23134 4.22544 2.34273 3.87728 2.52987C3.58407 2.80217 3.35187 3.13349 3.19595 3.50201C3.04004 3.87053 2.96395 4.2679 2.9727 4.66796C2.96555 5.04562 2.88692 5.41852 2.74095 5.76691C2.46751 5.99764 2.15648 6.17971 1.82142 6.30517C1.43641 6.41531 1.07894 6.6054 0.772361 6.86303C0.465779 7.12066 0.216969 7.44004 0.0421685 7.80034C-0.0253397 8.18568 -0.0116703 8.58086 0.0823025 8.96062C0.176275 9.34037 0.348482 9.69633 0.587905 10.0057C0.794479 10.3074 0.943977 10.6444 1.02898 11C0.948365 11.3686 0.798706 11.7187 0.587905 12.0317C0.348482 12.3411 0.176275 12.697 0.0823025 13.0768C-0.0116703 13.4565 -0.0253397 13.8517 0.0421685 14.237C0.216969 14.5973 0.465779 14.9167 0.772361 15.1744C1.07894 15.432 1.43641 15.6221 1.82142 15.7322C2.15648 15.8577 2.46751 16.0397 2.74095 16.2705C2.88238 16.6072 2.96093 16.967 2.9727 17.332C2.96014 17.7299 3.03153 18.1259 3.18224 18.4943C3.33295 18.8627 3.55958 19.1952 3.84738 19.4701C4.19554 19.6573 4.57934 19.7687 4.97359 19.797C5.36784 19.8254 5.76363 19.77 6.13499 19.6346C6.48898 19.5313 6.85978 19.4983 7.22646 19.5374C7.5174 19.7198 7.77108 19.9557 7.97404 20.2327C8.20471 20.5704 8.50471 20.8551 8.85405 21.0678C9.20339 21.2805 9.59405 21.4163 10 21.4662C10.4007 21.4123 10.7855 21.2746 11.1294 21.0621C11.4734 20.8495 11.7686 20.5669 11.9961 20.2327C12.199 19.9557 12.4527 19.7198 12.7436 19.5374C13.1103 19.4983 13.4811 19.5313 13.8351 19.6346C14.2065 19.77 14.6023 19.8254 14.9965 19.797C15.3908 19.7687 15.7746 19.6573 16.1227 19.4701C16.4105 19.1952 16.6371 18.8627 16.7879 18.4943C16.9386 18.1259 17.01 17.7299 16.9974 17.332C17.0092 16.967 17.0877 16.6072 17.2291 16.2705C17.5026 16.0397 17.8136 15.8577 18.1487 15.7322C18.5337 15.6221 18.8912 15.432 19.1977 15.1744C19.5043 14.9167 19.7531 14.5973 19.9279 14.237C19.9954 13.8517 19.9818 13.4565 19.8878 13.0768C19.7938 12.697 19.6216 12.3411 19.3822 12.0317C19.1819 11.7165 19.0425 11.3665 18.971 11ZM18.1113 12.7643C18.2758 13.0633 18.5898 13.6091 18.5374 13.7735C18.4851 13.938 17.9244 14.2071 17.5656 14.3716C16.989 14.5818 16.4747 14.9341 16.0704 15.3958C15.7498 15.9294 15.5746 16.5377 15.562 17.1601C15.5172 17.5339 15.4499 18.1469 15.2929 18.2591C15.1359 18.3712 14.5453 18.2591 14.1865 18.1693C13.5833 17.9939 12.9457 17.9734 12.3325 18.1095C11.7633 18.3499 11.2662 18.7337 10.8896 19.2234C10.6205 19.5225 10.2093 19.971 10 19.971C9.79068 19.971 9.37951 19.5225 9.11037 19.2234C8.74003 18.7367 8.25096 18.3532 7.68996 18.1095C7.47166 18.0443 7.24496 18.0116 7.01714 18.0123C6.61934 18.0273 6.22385 18.0799 5.83595 18.1693C5.47711 18.2441 4.87157 18.3637 4.72953 18.2591C4.58748 18.1544 4.50525 17.5115 4.4604 17.1601C4.44785 16.5377 4.27258 15.9294 3.95204 15.3958C3.54773 14.9341 3.03347 14.5818 2.45687 14.3716C2.09803 14.2071 1.55229 13.9604 1.48501 13.7735C1.41772 13.5866 1.74666 13.0633 1.91113 12.7643C2.26148 12.2376 2.4724 11.6305 2.52415 11C2.46569 10.3675 2.24699 9.76025 1.8887 9.2357C1.72423 8.93667 1.41025 8.39093 1.46258 8.22646C1.51491 8.06199 2.0756 7.79286 2.43444 7.62839C3.01104 7.41819 3.5253 7.06593 3.92961 6.6042C4.25016 6.07056 4.42542 5.46229 4.43797 4.8399C4.48282 4.46611 4.55011 3.85309 4.7071 3.74095C4.86409 3.62881 5.45468 3.74095 5.81352 3.83066C6.41669 4.00606 7.05432 4.02663 7.66754 3.89047C8.23669 3.65014 8.73381 3.26635 9.11037 2.77657C9.37951 2.47753 9.79068 2.02898 10 2.02898C10.2093 2.02898 10.6205 2.47753 10.8896 2.77657C11.26 3.2633 11.749 3.64684 12.31 3.89047C12.9232 4.02663 13.5609 4.00606 14.164 3.83066C14.5216 3.71862 14.8996 3.68797 15.2705 3.74095C15.4275 3.85309 15.4947 4.48854 15.5396 4.8399C15.5522 5.46229 15.7274 6.07056 16.048 6.6042C16.4523 7.06593 16.9665 7.41819 17.5431 7.62839C17.902 7.79286 18.4477 8.03957 18.515 8.22646C18.5823 8.41336 18.2533 8.97405 18.0889 9.2357C17.7385 9.76245 17.5276 10.3695 17.4758 11C17.5343 11.6325 17.753 12.2398 18.1113 12.7643Z" fill="white"/>
<path d="M12.8331 8.22649L8.87839 12.1887L7.54022 10.843C7.47051 10.7733 7.38776 10.718 7.29669 10.6803C7.20562 10.6426 7.10801 10.6232 7.00943 10.6232C6.91086 10.6232 6.81325 10.6426 6.72217 10.6803C6.6311 10.718 6.54835 10.7733 6.47865 10.843C6.40894 10.9127 6.35365 10.9955 6.31593 11.0866C6.2782 11.1776 6.25879 11.2752 6.25879 11.3738C6.25879 11.4724 6.2782 11.57 6.31593 11.6611C6.35365 11.7522 6.40894 11.8349 6.47865 11.9046L8.34761 13.7736C8.41711 13.8436 8.49979 13.8993 8.59089 13.9372C8.68199 13.9752 8.7797 13.9947 8.87839 13.9947C8.97708 13.9947 9.0748 13.9752 9.1659 13.9372C9.257 13.8993 9.33968 13.8436 9.40918 13.7736L13.8947 9.28806C13.9644 9.21835 14.0197 9.1356 14.0574 9.04453C14.0951 8.95346 14.1145 8.85585 14.1145 8.75727C14.1145 8.6587 14.0951 8.56109 14.0574 8.47001C14.0197 8.37894 13.9644 8.29619 13.8947 8.22649C13.825 8.15678 13.7422 8.10149 13.6512 8.06377C13.5601 8.02605 13.4625 8.00663 13.3639 8.00663C13.2653 8.00663 13.1677 8.02605 13.0766 8.06377C12.9856 8.10149 12.9028 8.15678 12.8331 8.22649Z" fill="#D9D9D9"/>
</svg>
