<svg width="30" height="31" viewBox="0 0 30 31" fill="none" xmlns="http://www.w3.org/2000/svg">
<path d="M25 20.5V23H16.25V20.3875C20 19.7 22.45 16.125 21.7625 12.375C21.075 8.625 17.5 6.175 13.75 6.8625C10 7.5625 7.55 11.125 8.2375 14.875C8.75 17.675 10.95 19.875 13.75 20.3875V23H5V20.5H8.65C7.69473 19.628 6.9322 18.5659 6.41128 17.382C5.89036 16.1981 5.62255 14.9184 5.625 13.625C5.625 11.1386 6.61272 8.75403 8.37087 6.99587C10.129 5.23772 12.5136 4.25 15 4.25C17.4864 4.25 19.871 5.23772 21.6291 6.99587C23.3873 8.75403 24.375 11.1386 24.375 13.625C24.375 16.2375 23.2875 18.7375 21.35 20.5H25ZM25 24.25H5V26.75H25V24.25Z" fill="white"/>
</svg>
