<svg width="30" height="31" viewBox="0 0 30 31" fill="none" xmlns="http://www.w3.org/2000/svg">
<path d="M14.5001 11.5833C14.7501 11.25 15.2501 11.25 15.5001 11.5833L17.2501 13.9166C18.0001 14.9166 19.5001 14.9166 20.2501 13.9166L21.9063 11.7084C22.1697 11.3572 22.7036 11.3799 22.9363 11.7521L25.0951 15.2062C25.278 15.4989 25.6636 15.5879 25.9563 15.405C26.249 15.222 26.338 14.8364 26.1551 14.5437L23.9963 11.0896C23.2982 9.97278 21.6965 9.90475 20.9063 10.9584L19.2501 13.1666C19.0001 13.5 18.5001 13.5 18.2501 13.1666L16.5001 10.8333C15.7501 9.83331 14.2501 9.83331 13.5001 10.8333L11.7501 13.1666C11.5001 13.5 11.0001 13.5 10.7501 13.1666L9.09389 10.9584C8.30366 9.90475 6.70193 9.97278 6.00389 11.0896L3.84508 14.5437C3.66214 14.8364 3.75112 15.222 4.04383 15.405C4.33654 15.5879 4.72214 15.4989 4.90508 15.2062L7.06389 11.7521C7.29657 11.3799 7.83048 11.3572 8.09389 11.7084L9.75008 13.9166C10.5001 14.9166 12.0001 14.9166 12.7501 13.9166L14.5001 11.5833Z" fill="black"/>
<path d="M14.5001 18.4583C14.7501 18.125 15.2501 18.125 15.5001 18.4583L17.2501 20.7916C18.0001 21.7916 19.5001 21.7916 20.2501 20.7916L21.9063 18.5834C22.1697 18.2322 22.7036 18.2549 22.9363 18.6271L25.0951 22.0812C25.278 22.3739 25.6636 22.4629 25.9563 22.28C26.249 22.097 26.338 21.7114 26.1551 21.4187L23.9963 17.9646C23.2982 16.8478 21.6965 16.7797 20.9063 17.8334L19.2501 20.0416C19.0001 20.375 18.5001 20.375 18.2501 20.0416L16.5001 17.7083C15.7501 16.7083 14.2501 16.7083 13.5001 17.7083L11.7501 20.0416C11.5001 20.375 11.0001 20.375 10.7501 20.0416L9.09389 17.8334C8.30366 16.7797 6.70193 16.8478 6.00389 17.9646L3.84508 21.4187C3.66214 21.7114 3.75112 22.097 4.04383 22.28C4.33654 22.4629 4.72214 22.3739 4.90508 22.0812L7.06389 18.6271C7.29657 18.2549 7.83048 18.2322 8.09389 18.5834L9.75008 20.7916C10.5001 21.7916 12.0001 21.7916 12.7501 20.7916L14.5001 18.4583Z" fill="black"/>
<path d="M14.5001 11.5833C14.7501 11.25 15.2501 11.25 15.5001 11.5833L17.2501 13.9166C18.0001 14.9166 19.5001 14.9166 20.2501 13.9166L21.9063 11.7084C22.1697 11.3572 22.7036 11.3799 22.9363 11.7521L25.0951 15.2062C25.278 15.4989 25.6636 15.5879 25.9563 15.405C26.249 15.222 26.338 14.8364 26.1551 14.5437L23.9963 11.0896C23.2982 9.97278 21.6965 9.90475 20.9063 10.9584L19.2501 13.1666C19.0001 13.5 18.5001 13.5 18.2501 13.1666L16.5001 10.8333C15.7501 9.83331 14.2501 9.83331 13.5001 10.8333L11.7501 13.1666C11.5001 13.5 11.0001 13.5 10.7501 13.1666L9.09389 10.9584C8.30366 9.90475 6.70193 9.97278 6.00389 11.0896L3.84508 14.5437C3.66214 14.8364 3.75112 15.222 4.04383 15.405C4.33654 15.5879 4.72214 15.4989 4.90508 15.2062L7.06389 11.7521C7.29657 11.3799 7.83048 11.3572 8.09389 11.7084L9.75008 13.9166C10.5001 14.9166 12.0001 14.9166 12.7501 13.9166L14.5001 11.5833Z" stroke="white" stroke-linecap="round"/>
<path d="M14.5001 18.4583C14.7501 18.125 15.2501 18.125 15.5001 18.4583L17.2501 20.7916C18.0001 21.7916 19.5001 21.7916 20.2501 20.7916L21.9063 18.5834C22.1697 18.2322 22.7036 18.2549 22.9363 18.6271L25.0951 22.0812C25.278 22.3739 25.6636 22.4629 25.9563 22.28C26.249 22.097 26.338 21.7114 26.1551 21.4187L23.9963 17.9646C23.2982 16.8478 21.6965 16.7797 20.9063 17.8334L19.2501 20.0416C19.0001 20.375 18.5001 20.375 18.2501 20.0416L16.5001 17.7083C15.7501 16.7083 14.2501 16.7083 13.5001 17.7083L11.7501 20.0416C11.5001 20.375 11.0001 20.375 10.7501 20.0416L9.09389 17.8334C8.30366 16.7797 6.70193 16.8478 6.00389 17.9646L3.84508 21.4187C3.66214 21.7114 3.75112 22.097 4.04383 22.28C4.33654 22.4629 4.72214 22.3739 4.90508 22.0812L7.06389 18.6271C7.29657 18.2549 7.83048 18.2322 8.09389 18.5834L9.75008 20.7916C10.5001 21.7916 12.0001 21.7916 12.7501 20.7916L14.5001 18.4583Z" stroke="white" stroke-linecap="round"/>
</svg>
